<?xml version="1.0" encoding="UTF-8"?>
<svg xmlns="http://www.w3.org/2000/svg" viewBox="0 0 28 28">
  <path d="M17.7,13.5c0,2-1.6,3.7-3.7,3.7s-3.7-1.6-3.7-3.7,1.6-3.7,3.7-3.7,3.7,1.6,3.7,3.7" fill="currentColor"/>
  <path d="M14,10.9c3.9,0,7.6,1.2,10.7,3.2-2.2-3.6-6.1-6.1-10.7-6.1s-8.5,2.4-10.7,6.1c3.1-2,6.7-3.2,10.7-3.2" fill="currentColor"/>
  <path d="M21,17.8c-2.2.8-4.5,1.3-7,1.3s-4.8-.5-7-1.3c2,1.4,4.4,2.3,7,2.3s5-.8,7-2.3" fill="currentColor"/>
  <path d="M16.7,12.3c0,.8-.7,1.5-1.5,1.5s-1.5-.7-1.5-1.5.7-1.5,1.5-1.5,1.5.7,1.5,1.5" class="eye-glint"/>
</svg>
