<?xml version="1.0" encoding="UTF-8"?>
<svg id="Capa_1" xmlns="http://www.w3.org/2000/svg" version="1.1" viewBox="0 0 28 28">
  <!-- Generator: Adobe Illustrator 30.2.1, SVG Export Plug-In . SVG Version: 2.1.1 Build 1)  -->
  <line x1="14.4" y1="13.3" x2="4.4" y2="9.2" style="fill: none; stroke: #1d1d1b; stroke-miterlimit: 10;"/>
  <polyline points="22.6 8.7 14.4 13.3 12.5 4.5" style="fill: none; stroke: #1d1d1b; stroke-miterlimit: 10;"/>
  <polyline points="14.4 13.3 7.3 22.4 21.2 22.1" style="fill: none; stroke: #1d1d1b; stroke-miterlimit: 10;"/>
  <line x1="14.4" y1="13.3" x2="21.2" y2="22.1" style="fill: none; stroke: #1d1d1b; stroke-miterlimit: 10;"/>
  <circle cx="4.4" cy="9.2" r="1.3" style="fill: #fff; stroke: #1d1d1b; stroke-miterlimit: 10; stroke-width: 2.3px;"/>
  <g>
    <circle cx="12.5" cy="4.5" r="2.9" style="fill: #fff;"/>
    <path d="M12.5,2.8c.9,0,1.7.8,1.7,1.7s-.8,1.7-1.7,1.7-1.7-.8-1.7-1.7.8-1.7,1.7-1.7M12.5.5c-2.2,0-4.1,1.8-4.1,4.1s1.8,4.1,4.1,4.1,4.1-1.8,4.1-4.1S14.7.5,12.5.5h0Z" style="fill: #1d1d1b;"/>
  </g>
  <g>
    <path d="M21.2,24.4c-1.3,0-2.4-1.1-2.4-2.4s1.1-2.4,2.4-2.4,2.4,1.1,2.4,2.4-1.1,2.4-2.4,2.4Z" style="fill: #fff;"/>
    <path d="M21.2,20.9c.7,0,1.2.5,1.2,1.2s-.5,1.2-1.2,1.2-1.2-.5-1.2-1.2.5-1.2,1.2-1.2M21.2,18.5c-1.9,0-3.5,1.6-3.5,3.5s1.6,3.5,3.5,3.5,3.5-1.6,3.5-3.5-1.6-3.5-3.5-3.5h0Z" style="fill: #1d1d1b;"/>
  </g>
  <g>
    <path d="M7.3,25.5c-1.7,0-3.1-1.4-3.1-3.1s1.4-3.1,3.1-3.1,3.1,1.4,3.1,3.1-1.4,3.1-3.1,3.1Z" style="fill: #fff;"/>
    <path d="M7.3,20.5c1.1,0,1.9.9,1.9,1.9s-.9,1.9-1.9,1.9-1.9-.9-1.9-1.9.9-1.9,1.9-1.9M7.3,18.1c-2.4,0-4.3,1.9-4.3,4.3s1.9,4.3,4.3,4.3,4.3-1.9,4.3-4.3-1.9-4.3-4.3-4.3h0Z" style="fill: #1d1d1b;"/>
  </g>
  <g>
    <circle cx="14.5" cy="14.5" r="3.8" style="fill: #fff;"/>
    <path d="M14.5,11.9c1.5,0,2.6,1.2,2.6,2.6s-1.2,2.6-2.6,2.6-2.6-1.2-2.6-2.6,1.2-2.6,2.6-2.6M14.5,9.6c-2.7,0-5,2.2-5,5s2.2,5,5,5,5-2.2,5-5-2.2-5-5-5h0Z" style="fill: #1d1d1b;"/>
  </g>
  <g>
    <circle cx="22.6" cy="8.7" r="2.1" style="fill: #fff;"/>
    <path d="M22.6,7.8c.5,0,.9.4.9.9s-.4.9-.9.9-.9-.4-.9-.9.4-.9.9-.9M22.6,5.5c-1.8,0-3.2,1.5-3.2,3.2s1.5,3.2,3.2,3.2,3.2-1.5,3.2-3.2-1.5-3.2-3.2-3.2h0Z" style="fill: #1d1d1b;"/>
  </g>
</svg>